<?xml version="1.0" encoding="UTF-8"?>
<svg xmlns="http://www.w3.org/2000/svg" xmlns:xlink="http://www.w3.org/1999/xlink" width="149pt" height="69pt" viewBox="0 0 149 69" version="1.1">
<g id="surface1">
<path style=" stroke:none;fill-rule:nonzero;fill:rgb(0.392157%,48.627451%,50.980392%);fill-opacity:1;" d="M 138.9375 29.441406 C 139.519531 29.753906 139.957031 30.257812 140.449219 30.679688 C 141.320312 31.414062 142.15625 32.179688 143.019531 32.921875 C 143.175781 33.0625 143.28125 33.21875 143.332031 33.433594 C 144.054688 36.679688 144.777344 39.914062 145.507812 43.15625 C 145.515625 43.183594 145.527344 43.207031 145.535156 43.242188 C 145.65625 43.800781 145.65625 43.800781 145.082031 43.808594 C 142.304688 43.816406 139.53125 43.792969 136.753906 43.851562 C 133.625 43.917969 130.484375 43.875 127.355469 43.933594 C 126.46875 43.949219 125.582031 44 124.695312 43.957031 C 124.695312 43.769531 124.703125 43.570312 124.703125 43.382812 C 124.726562 40.5 123.75 37.984375 121.820312 35.878906 C 119.527344 33.359375 116.636719 32.015625 113.246094 31.851562 C 108.867188 31.636719 105.226562 33.179688 102.5 36.671875 C 100.925781 38.691406 100.191406 41.035156 100.273438 43.628906 C 100.285156 43.910156 100.355469 44.007812 100.644531 43.992188 C 101.136719 43.96875 101.628906 43.96875 102.125 43.992188 C 102.453125 44.007812 102.507812 43.882812 102.492188 43.585938 C 102.46875 43.148438 102.460938 42.703125 102.519531 42.265625 C 102.992188 38.832031 104.867188 36.414062 107.921875 34.90625 C 109.878906 33.9375 111.964844 33.667969 114.117188 34.003906 C 116.964844 34.457031 119.273438 35.835938 120.933594 38.230469 C 122.132812 39.949219 122.601562 41.878906 122.46875 43.96875 C 121.03125 43.984375 119.59375 43.976562 118.164062 44.015625 C 114.8125 44.105469 111.460938 44.03125 108.109375 44.105469 C 104.988281 44.171875 101.867188 44.117188 98.753906 44.191406 C 95.550781 44.265625 92.347656 44.199219 89.152344 44.273438 C 86.023438 44.347656 82.886719 44.28125 79.757812 44.355469 C 76.59375 44.429688 73.433594 44.363281 70.277344 44.4375 C 67.109375 44.511719 63.929688 44.453125 60.757812 44.519531 C 59.773438 44.535156 58.785156 44.542969 57.800781 44.578125 C 57.523438 44.585938 57.421875 44.503906 57.421875 44.207031 C 57.441406 40.078125 57.429688 35.953125 57.464844 31.824219 C 57.472656 30.851562 57.488281 29.878906 57.488281 28.894531 C 57.496094 27.261719 57.496094 25.617188 57.503906 23.984375 C 57.503906 23.324219 57.457031 23.457031 58.054688 23.457031 C 58.359375 23.457031 58.65625 23.480469 58.960938 23.488281 C 62.449219 23.5625 65.933594 23.636719 69.421875 23.710938 C 72.40625 23.777344 75.386719 23.84375 78.367188 23.910156 C 79.378906 23.945312 80.390625 23.96875 81.398438 23.992188 C 83.691406 24.050781 85.992188 24.101562 88.28125 24.148438 C 91.46875 24.214844 94.648438 24.273438 97.835938 24.332031 C 98.007812 24.503906 98.207031 24.660156 98.351562 24.851562 C 98.542969 25.082031 98.765625 25.183594 99.050781 25.214844 C 101.457031 25.496094 103.855469 25.785156 106.261719 26.066406 C 108.90625 26.378906 111.5625 26.699219 114.207031 27.015625 C 117.074219 27.359375 119.9375 27.699219 122.804688 28.039062 C 125.007812 28.300781 127.207031 28.574219 129.410156 28.820312 C 129.714844 28.855469 129.78125 28.960938 129.78125 29.257812 C 129.761719 31.257812 129.78125 33.246094 129.761719 35.242188 C 129.761719 35.574219 129.863281 35.648438 130.171875 35.648438 C 133.277344 35.640625 136.390625 35.664062 139.496094 35.621094 C 140.226562 35.613281 140.703125 35.769531 141.015625 36.457031 C 141.132812 36.71875 141.171875 36.902344 141.066406 37.175781 C 140.589844 38.3125 140.136719 39.460938 139.703125 40.617188 C 139.585938 40.929688 139.421875 41.011719 139.101562 41.011719 C 136.1875 40.996094 133.269531 41.003906 130.355469 41.003906 C 129.574219 41.003906 128.792969 41.019531 128.011719 40.996094 C 127.691406 40.988281 127.609375 41.085938 127.644531 41.390625 C 127.691406 41.789062 127.71875 42.183594 127.710938 42.589844 C 127.703125 42.894531 127.800781 42.976562 128.113281 42.976562 C 132.21875 42.96875 136.324219 42.96875 140.433594 42.976562 C 140.695312 42.976562 140.8125 42.894531 140.910156 42.644531 C 141.65625 40.773438 142.414062 38.898438 143.183594 37.035156 C 143.28125 36.785156 143.257812 36.605469 143.128906 36.390625 C 142.59375 35.523438 142.074219 34.65625 141.550781 33.78125 C 140.664062 32.347656 139.800781 30.894531 138.9375 29.441406 Z M 63.230469 29.050781 C 63.230469 30.25 63.222656 31.445312 63.238281 32.644531 C 63.246094 33.21875 63.460938 33.433594 64.042969 33.445312 C 64.964844 33.453125 65.875 33.453125 66.796875 33.445312 C 67.402344 33.433594 67.625 33.238281 67.632812 32.625 C 67.648438 30.25 67.648438 27.871094 67.632812 25.496094 C 67.632812 24.867188 67.394531 24.679688 66.761719 24.671875 C 65.898438 24.660156 65.039062 24.660156 64.175781 24.671875 C 63.4375 24.671875 63.238281 24.867188 63.238281 25.636719 C 63.230469 26.773438 63.230469 27.914062 63.230469 29.050781 Z M 68.675781 29.0625 C 68.675781 30.273438 68.675781 31.480469 68.675781 32.691406 C 68.675781 33.453125 68.675781 33.460938 69.421875 33.453125 C 70.082031 33.453125 70 33.527344 70 32.890625 C 70 30.660156 70 28.433594 70 26.207031 C 70 25.957031 70 25.777344 70.335938 25.800781 C 70.664062 25.824219 70.992188 25.816406 71.320312 25.800781 C 71.574219 25.785156 71.65625 25.875 71.648438 26.132812 C 71.632812 26.75 71.640625 27.367188 71.640625 27.988281 C 71.640625 28.566406 71.640625 28.566406 71.082031 28.566406 C 70.320312 28.566406 70.195312 28.738281 70.410156 29.507812 C 70.433594 29.597656 70.476562 29.6875 70.5 29.777344 C 70.820312 30.695312 71.148438 31.621094 71.46875 32.535156 C 71.796875 33.476562 71.796875 33.460938 72.785156 33.460938 C 73.09375 33.460938 73.152344 33.386719 73.039062 33.089844 C 72.636719 32.015625 72.257812 30.917969 71.855469 29.84375 C 71.75 29.5625 71.773438 29.472656 72.101562 29.464844 C 72.765625 29.441406 72.929688 29.242188 72.9375 28.574219 C 72.9375 27.582031 72.949219 26.59375 72.9375 25.601562 C 72.9375 24.902344 72.726562 24.6875 72.035156 24.679688 C 71.035156 24.671875 70.039062 24.6875 69.039062 24.671875 C 68.710938 24.660156 68.660156 24.777344 68.660156 25.074219 C 68.683594 26.394531 68.675781 27.730469 68.675781 29.0625 Z M 58.070312 29.050781 C 58.070312 30.191406 58.070312 31.339844 58.070312 32.476562 C 58.070312 33.476562 58.070312 33.46875 59.050781 33.460938 C 59.328125 33.460938 59.394531 33.371094 59.386719 33.105469 C 59.371094 32.261719 59.386719 31.429688 59.378906 30.585938 C 59.378906 30.355469 59.445312 30.273438 59.675781 30.28125 C 60.25 30.300781 60.824219 30.300781 61.398438 30.273438 C 62.039062 30.25 62.277344 30.035156 62.285156 29.398438 C 62.3125 28.101562 62.3125 26.816406 62.285156 25.519531 C 62.277344 24.875 62.039062 24.671875 61.390625 24.671875 C 60.386719 24.660156 59.394531 24.679688 58.390625 24.660156 C 58.113281 24.652344 58.046875 24.753906 58.054688 25.015625 C 58.070312 26.363281 58.070312 27.707031 58.070312 29.050781 Z M 78.433594 29.0625 C 78.433594 30.390625 78.441406 31.726562 78.425781 33.054688 C 78.417969 33.394531 78.53125 33.46875 78.84375 33.460938 C 79.632812 33.445312 80.429688 33.453125 81.226562 33.453125 C 82.105469 33.453125 82.097656 33.453125 82.074219 32.578125 C 82.066406 32.335938 81.992188 32.273438 81.761719 32.28125 C 81.1875 32.296875 80.609375 32.28125 80.035156 32.289062 C 79.871094 32.289062 79.75 32.289062 79.75 32.058594 C 79.757812 31.296875 79.757812 30.546875 79.75 29.789062 C 79.75 29.613281 79.804688 29.539062 79.988281 29.546875 C 80.289062 29.554688 80.585938 29.546875 80.890625 29.546875 C 81.769531 29.546875 81.761719 29.546875 81.726562 28.671875 C 81.71875 28.464844 81.671875 28.382812 81.449219 28.382812 C 80.980469 28.402344 80.519531 28.375 80.050781 28.390625 C 79.832031 28.402344 79.742188 28.335938 79.75 28.09375 C 79.765625 27.433594 79.765625 26.773438 79.75 26.113281 C 79.742188 25.867188 79.839844 25.816406 80.0625 25.824219 C 80.453125 25.84375 80.859375 25.824219 81.25 25.824219 C 82.074219 25.824219 82.058594 25.824219 82.066406 25 C 82.066406 24.695312 81.949219 24.644531 81.679688 24.644531 C 80.734375 24.660156 79.789062 24.660156 78.84375 24.644531 C 78.53125 24.636719 78.425781 24.710938 78.425781 25.050781 C 78.449219 26.394531 78.433594 27.722656 78.433594 29.0625 Z M 76.332031 29.671875 C 76.332031 28.597656 76.332031 27.527344 76.332031 26.453125 C 76.332031 25.726562 76.257812 25.84375 76.929688 25.832031 C 77.835938 25.824219 77.835938 25.832031 77.785156 24.933594 C 77.785156 24.917969 77.785156 24.910156 77.785156 24.894531 C 77.800781 24.710938 77.710938 24.652344 77.546875 24.652344 C 76.300781 24.652344 75.058594 24.652344 73.808594 24.652344 C 73.6875 24.652344 73.613281 24.679688 73.589844 24.828125 C 73.425781 25.644531 73.570312 25.824219 74.386719 25.824219 C 74.449219 25.824219 74.523438 25.832031 74.589844 25.824219 C 74.925781 25.769531 75.027344 25.898438 75.027344 26.246094 C 75.007812 28.335938 75.015625 30.421875 75.015625 32.511719 C 75.015625 33.460938 75.015625 33.445312 75.96875 33.453125 C 76.300781 33.453125 76.347656 33.328125 76.347656 33.046875 C 76.324219 31.925781 76.332031 30.800781 76.332031 29.671875 Z M 76.332031 29.671875 "/>
<path style=" stroke:none;fill-rule:nonzero;fill:rgb(86.666667%,87.058824%,20.392157%);fill-opacity:1;" d="M 78.351562 23.917969 C 75.371094 23.851562 72.390625 23.777344 69.40625 23.722656 C 65.917969 23.648438 62.433594 23.570312 58.941406 23.496094 C 58.640625 23.488281 58.34375 23.464844 58.039062 23.464844 C 57.441406 23.464844 57.488281 23.332031 57.488281 23.992188 C 57.480469 25.628906 57.480469 27.269531 57.472656 28.902344 C 54.164062 28.902344 50.851562 28.914062 47.542969 28.914062 C 39.425781 28.914062 31.320312 28.914062 23.203125 28.914062 C 22.664062 28.914062 22.671875 28.914062 22.816406 28.410156 C 22.917969 28.078125 23.007812 27.75 23.105469 27.417969 C 23.203125 27.410156 23.292969 27.402344 23.394531 27.402344 C 25.25 27.402344 27.105469 27.394531 28.960938 27.410156 C 29.242188 27.410156 29.347656 27.34375 29.332031 27.046875 C 29.308594 26.511719 29.308594 25.972656 29.332031 25.445312 C 29.347656 25.097656 29.25 25.007812 28.90625 25.015625 C 27.230469 25.03125 25.546875 25.015625 23.871094 25.007812 C 24.058594 24.382812 24.246094 23.746094 24.429688 23.117188 C 24.535156 23.257812 24.65625 23.390625 24.742188 23.546875 C 24.878906 23.804688 25.011719 23.804688 25.25 23.636719 C 32.042969 18.957031 39.386719 15.410156 47.230469 12.917969 C 48.132812 12.976562 49.027344 13.03125 49.933594 13.082031 C 53.933594 13.296875 57.941406 13.511719 61.941406 13.726562 C 64.765625 13.875 67.601562 14.039062 70.425781 14.179688 C 70.707031 14.195312 70.871094 14.304688 71.035156 14.511719 C 72.734375 16.695312 74.449219 18.875 76.152344 21.0625 C 76.890625 22.003906 77.679688 22.921875 78.351562 23.917969 Z M 48.945312 24 C 48.972656 23.992188 48.988281 23.992188 49.011719 23.984375 C 49.054688 24.082031 49.085938 24.175781 49.128906 24.273438 C 49.613281 25.527344 50.089844 26.773438 50.574219 28.027344 C 50.8125 28.65625 50.820312 28.640625 51.492188 28.664062 C 51.847656 28.679688 51.921875 28.558594 51.921875 28.226562 C 51.902344 25.917969 51.910156 23.605469 51.910156 21.300781 C 51.910156 20.460938 51.910156 20.476562 51.074219 20.460938 C 50.730469 20.453125 50.679688 20.585938 50.679688 20.882812 C 50.695312 22.175781 50.6875 23.464844 50.6875 24.761719 C 50.6875 24.851562 50.671875 24.949219 50.664062 25.164062 C 50.097656 23.703125 49.554688 22.375 49.054688 21.03125 C 48.898438 20.609375 48.714844 20.425781 48.238281 20.453125 C 47.855469 20.476562 47.714844 20.527344 47.714844 20.964844 C 47.738281 23.234375 47.722656 25.503906 47.722656 27.765625 C 47.722656 28.746094 47.722656 28.730469 48.699219 28.664062 C 48.988281 28.648438 48.945312 28.476562 48.945312 28.300781 C 48.945312 27.230469 48.945312 26.15625 48.9375 25.082031 C 48.945312 24.726562 48.945312 24.363281 48.945312 24 Z M 37.980469 24.539062 C 37.980469 25.636719 37.980469 26.734375 37.980469 27.839844 C 37.980469 28.664062 37.980469 28.648438 38.792969 28.664062 C 39.132812 28.671875 39.238281 28.589844 39.238281 28.234375 C 39.222656 26.378906 39.230469 24.519531 39.230469 22.671875 C 39.230469 21.5 39.230469 21.5 40.421875 21.523438 C 40.667969 21.535156 40.757812 21.582031 40.75 21.847656 C 40.734375 22.425781 40.714844 23.003906 40.75 23.582031 C 40.78125 24.007812 40.652344 24.140625 40.214844 24.117188 C 39.492188 24.074219 39.394531 24.25 39.589844 24.96875 C 39.625 25.074219 39.65625 25.171875 39.699219 25.28125 C 39.992188 26.121094 40.289062 26.964844 40.585938 27.804688 C 40.898438 28.691406 40.898438 28.671875 41.824219 28.671875 C 42.128906 28.671875 42.171875 28.597656 42.0625 28.316406 C 41.695312 27.328125 41.347656 26.335938 40.980469 25.347656 C 40.871094 25.066406 40.871094 24.933594 41.234375 24.925781 C 41.785156 24.917969 41.964844 24.710938 41.972656 24.167969 C 41.980469 23.21875 41.980469 22.269531 41.972656 21.320312 C 41.964844 20.683594 41.757812 20.476562 41.136719 20.46875 C 40.207031 20.460938 39.277344 20.476562 38.34375 20.460938 C 38.046875 20.453125 37.972656 20.550781 37.980469 20.832031 C 37.988281 22.070312 37.980469 23.308594 37.980469 24.539062 Z M 54.785156 28.648438 C 54.785156 28.648438 54.785156 28.65625 54.785156 28.65625 C 55.171875 28.65625 55.550781 28.65625 55.9375 28.65625 C 55.960938 28.65625 55.992188 28.65625 56.019531 28.65625 C 56.542969 28.632812 56.757812 28.425781 56.765625 27.890625 C 56.773438 27.285156 56.757812 26.675781 56.773438 26.074219 C 56.78125 25.703125 56.652344 25.414062 56.378906 25.164062 C 55.746094 24.578125 55.140625 23.960938 54.492188 23.390625 C 54.164062 23.101562 54.03125 22.804688 54.046875 22.359375 C 54.082031 21.484375 54.054688 21.476562 54.941406 21.484375 C 55.640625 21.492188 55.535156 21.394531 55.542969 22.101562 C 55.550781 23.078125 55.542969 23.070312 56.488281 23.035156 C 56.734375 23.027344 56.78125 22.9375 56.773438 22.722656 C 56.757812 22.226562 56.773438 21.730469 56.765625 21.238281 C 56.75 20.683594 56.535156 20.46875 55.976562 20.460938 C 55.214844 20.453125 54.441406 20.453125 53.679688 20.460938 C 53.0625 20.46875 52.847656 20.675781 52.832031 21.3125 C 52.816406 21.832031 52.839844 22.359375 52.824219 22.878906 C 52.816406 23.265625 52.945312 23.5625 53.234375 23.828125 C 53.898438 24.445312 54.539062 25.089844 55.214844 25.695312 C 55.476562 25.933594 55.558594 26.171875 55.550781 26.519531 C 55.535156 27.714844 55.542969 27.714844 54.328125 27.648438 C 54.105469 27.640625 54.046875 27.566406 54.046875 27.351562 C 54.054688 26.964844 54.039062 26.585938 54.054688 26.195312 C 54.0625 25.992188 53.957031 25.90625 53.785156 25.957031 C 53.464844 26.03125 52.929688 25.726562 52.863281 26.132812 C 52.75 26.78125 52.78125 27.476562 52.882812 28.144531 C 52.929688 28.476562 53.152344 28.648438 53.480469 28.65625 C 53.90625 28.65625 54.351562 28.648438 54.785156 28.648438 Z M 44.808594 20.453125 C 44.601562 20.535156 44.230469 20.246094 44.132812 20.757812 C 43.65625 23.308594 43.15625 25.851562 42.664062 28.390625 C 42.621094 28.589844 42.65625 28.65625 42.867188 28.664062 C 43.804688 28.730469 43.804688 28.730469 43.960938 27.824219 C 44.074219 27.113281 44.074219 27.113281 44.816406 27.113281 C 45.578125 27.113281 45.578125 27.113281 45.710938 27.824219 C 45.867188 28.691406 45.867188 28.691406 46.761719 28.664062 C 46.984375 28.65625 47.066406 28.648438 47.015625 28.367188 C 46.523438 25.84375 46.046875 23.308594 45.570312 20.773438 C 45.53125 20.535156 45.429688 20.402344 45.167969 20.445312 C 45.0625 20.46875 44.945312 20.453125 44.808594 20.453125 Z M 34.820312 25.097656 C 34.820312 26.015625 34.820312 26.941406 34.820312 27.855469 C 34.820312 28.664062 34.820312 28.648438 35.640625 28.664062 C 36 28.671875 36.058594 28.550781 36.058594 28.21875 C 36.042969 26.171875 36.050781 24.125 36.050781 22.078125 C 36.050781 21.449219 35.976562 21.550781 36.601562 21.542969 C 37.445312 21.535156 37.4375 21.542969 37.382812 20.691406 C 37.363281 20.519531 37.324219 20.453125 37.144531 20.453125 C 35.992188 20.460938 34.84375 20.453125 33.703125 20.453125 C 33.570312 20.453125 33.480469 20.46875 33.457031 20.640625 C 33.324219 21.417969 33.421875 21.542969 34.195312 21.542969 C 34.277344 21.542969 34.359375 21.550781 34.441406 21.542969 C 34.738281 21.492188 34.84375 21.601562 34.835938 21.921875 C 34.800781 22.976562 34.820312 24.035156 34.820312 25.097656 Z M 34.820312 25.097656 "/>
<path style=" stroke:none;fill-rule:nonzero;fill:rgb(98.823529%,98.431373%,98.039216%);fill-opacity:1;" d="M 47.230469 12.898438 C 39.378906 15.394531 32.042969 18.949219 25.25 23.621094 C 25.011719 23.785156 24.878906 23.785156 24.742188 23.53125 C 24.65625 23.375 24.535156 23.242188 24.429688 23.101562 C 24.199219 22.761719 23.984375 22.410156 23.738281 22.078125 C 23.582031 21.871094 23.574219 21.765625 23.820312 21.617188 C 24.28125 21.328125 24.765625 21.0625 25.183594 20.707031 C 25.308594 20.652344 25.429688 20.59375 25.546875 20.527344 C 28.796875 18.488281 32.132812 16.621094 35.589844 14.964844 C 37.363281 14.113281 39.179688 13.355469 40.988281 12.585938 C 42.65625 11.976562 44.3125 11.347656 46.007812 10.8125 C 50.113281 9.523438 54.292969 8.601562 58.582031 8.144531 C 62.941406 7.683594 67.304688 7.71875 71.640625 8.359375 C 80.300781 9.640625 88.101562 12.964844 95.035156 18.347656 C 96.839844 19.757812 98.550781 21.285156 100.078125 23.003906 C 100.234375 23.175781 100.40625 23.257812 100.636719 23.285156 C 103.953125 23.621094 107.273438 23.976562 110.601562 24.324219 C 112.128906 24.480469 113.648438 24.621094 115.175781 24.769531 C 115.710938 24.894531 116.257812 24.910156 116.792969 24.96875 C 119.5625 25.265625 122.335938 25.554688 125.105469 25.84375 C 127.601562 26.105469 130.101562 26.371094 132.605469 26.625 C 133.8125 26.75 135.019531 26.867188 136.226562 26.980469 C 136.375 27.003906 136.53125 27.0625 136.671875 27.046875 C 137.378906 26.972656 137.753906 27.351562 138.042969 27.945312 C 138.296875 28.464844 138.652344 28.945312 138.960938 29.441406 C 139.824219 30.894531 140.6875 32.347656 141.550781 33.789062 C 142.066406 34.664062 142.59375 35.539062 143.128906 36.398438 C 143.265625 36.621094 143.292969 36.804688 143.183594 37.042969 C 142.421875 38.90625 141.65625 40.78125 140.910156 42.65625 C 140.8125 42.902344 140.695312 42.984375 140.433594 42.984375 C 136.324219 42.976562 132.21875 42.976562 128.113281 42.984375 C 127.800781 42.984375 127.710938 42.902344 127.710938 42.597656 C 127.71875 42.199219 127.683594 41.796875 127.644531 41.398438 C 127.609375 41.09375 127.691406 40.996094 128.011719 41.003906 C 128.792969 41.027344 129.574219 41.011719 130.355469 41.011719 C 133.269531 41.011719 136.1875 41.003906 139.101562 41.019531 C 139.421875 41.019531 139.578125 40.9375 139.703125 40.625 C 140.136719 39.46875 140.597656 38.320312 141.066406 37.183594 C 141.179688 36.910156 141.140625 36.726562 141.015625 36.464844 C 140.703125 35.78125 140.226562 35.613281 139.496094 35.628906 C 136.390625 35.679688 133.277344 35.648438 130.171875 35.65625 C 129.863281 35.65625 129.761719 35.589844 129.761719 35.25 C 129.78125 33.253906 129.761719 31.265625 129.78125 29.265625 C 129.78125 28.976562 129.707031 28.871094 129.410156 28.828125 C 127.207031 28.582031 125.007812 28.308594 122.804688 28.046875 C 119.9375 27.699219 117.074219 27.359375 114.207031 27.023438 C 111.5625 26.707031 108.90625 26.386719 106.261719 26.074219 C 103.855469 25.785156 101.457031 25.496094 99.050781 25.222656 C 98.765625 25.191406 98.542969 25.089844 98.351562 24.859375 C 98.195312 24.671875 98.007812 24.511719 97.835938 24.339844 C 96.175781 22.539062 94.371094 20.90625 92.457031 19.394531 C 88.59375 16.351562 84.375 13.980469 79.722656 12.371094 C 75.609375 10.945312 71.371094 10.203125 67.023438 10.019531 C 62.722656 9.847656 58.476562 10.257812 54.261719 11.085938 C 51.871094 11.5625 49.546875 12.199219 47.230469 12.898438 Z M 135.539062 33.558594 C 135.539062 33.542969 135.539062 33.519531 135.539062 33.5 C 136.589844 33.5 137.640625 33.5 138.691406 33.5 C 138.9375 33.5 139.070312 33.484375 138.878906 33.195312 C 138.175781 32.105469 137.46875 31.007812 136.769531 29.910156 C 136.6875 29.789062 136.597656 29.722656 136.449219 29.703125 C 135.09375 29.546875 133.738281 29.390625 132.382812 29.210938 C 132.097656 29.167969 132.039062 29.277344 132.046875 29.539062 C 132.054688 30.761719 132.0625 31.984375 132.046875 33.203125 C 132.046875 33.507812 132.152344 33.566406 132.425781 33.566406 C 133.46875 33.550781 134.503906 33.558594 135.539062 33.558594 Z M 135.539062 33.558594 "/>
<path style=" stroke:none;fill-rule:nonzero;fill:rgb(98.431373%,98.431373%,97.647059%);fill-opacity:1;" d="M 122.46875 43.96875 C 122.601562 41.878906 122.132812 39.957031 120.933594 38.230469 C 119.273438 35.835938 116.964844 34.457031 114.117188 34.003906 C 111.964844 33.65625 109.878906 33.9375 107.921875 34.90625 C 104.867188 36.414062 102.992188 38.839844 102.519531 42.265625 C 102.460938 42.695312 102.46875 43.148438 102.492188 43.585938 C 102.507812 43.882812 102.445312 44.007812 102.125 43.992188 C 101.628906 43.96875 101.136719 43.96875 100.644531 43.992188 C 100.355469 44.007812 100.285156 43.910156 100.273438 43.628906 C 100.191406 41.046875 100.914062 38.699219 102.5 36.671875 C 105.226562 33.179688 108.867188 31.636719 113.246094 31.851562 C 116.636719 32.015625 119.527344 33.351562 121.820312 35.878906 C 123.742188 37.992188 124.726562 40.5 124.703125 43.382812 C 124.703125 43.570312 124.695312 43.769531 124.695312 43.957031 C 123.949219 44.007812 123.207031 44 122.46875 43.96875 Z M 122.46875 43.96875 "/>
<path style=" stroke:none;fill-rule:nonzero;fill:rgb(98.823529%,98.431373%,98.039216%);fill-opacity:1;" d="M 15.359375 34.820312 C 11.007812 34.820312 6.660156 34.820312 2.308594 34.832031 C 1.988281 34.832031 1.882812 34.757812 1.898438 34.425781 C 1.921875 33.863281 1.914062 33.296875 1.898438 32.734375 C 1.890625 32.496094 1.972656 32.4375 2.203125 32.4375 C 6.210938 32.453125 10.21875 32.453125 14.226562 32.46875 C 16 32.476562 17.78125 32.484375 19.558594 32.484375 C 22.539062 32.496094 25.519531 32.503906 28.503906 32.496094 C 28.804688 32.496094 28.9375 32.542969 28.914062 32.890625 C 28.878906 33.425781 28.878906 33.964844 28.914062 34.5 C 28.9375 34.839844 28.804688 34.871094 28.519531 34.871094 C 24.125 34.863281 19.738281 34.863281 15.34375 34.863281 C 15.359375 34.855469 15.359375 34.839844 15.359375 34.820312 Z M 15.359375 34.820312 "/>
<path style=" stroke:none;fill-rule:nonzero;fill:rgb(86.666667%,87.058824%,20.392157%);fill-opacity:1;" d="M 40.980469 12.585938 C 39.171875 13.355469 37.355469 14.113281 35.582031 14.964844 C 32.125 16.621094 28.789062 18.496094 25.535156 20.527344 C 25.421875 20.601562 25.296875 20.652344 25.175781 20.707031 C 25.996094 17.992188 26.828125 15.277344 27.648438 12.5625 C 27.863281 11.859375 27.863281 11.875 28.609375 11.917969 C 31.394531 12.074219 34.179688 12.214844 36.960938 12.363281 C 38.300781 12.453125 39.640625 12.519531 40.980469 12.585938 Z M 40.980469 12.585938 "/>
<path style=" stroke:none;fill-rule:nonzero;fill:rgb(0.392157%,61.568627%,82.352941%);fill-opacity:1;" d="M 23.863281 25 C 25.535156 25.007812 27.222656 25.023438 28.894531 25.007812 C 29.242188 25.007812 29.339844 25.097656 29.324219 25.4375 C 29.289062 25.972656 29.300781 26.511719 29.324219 27.039062 C 29.339844 27.335938 29.234375 27.402344 28.953125 27.402344 C 27.097656 27.394531 25.242188 27.394531 23.386719 27.394531 C 23.285156 27.394531 23.195312 27.402344 23.097656 27.410156 C 20.75 27.402344 18.390625 27.402344 16.042969 27.394531 C 15.492188 27.394531 14.949219 27.378906 14.398438 27.402344 C 14.136719 27.410156 14.039062 27.335938 14.046875 27.054688 C 14.0625 26.503906 14.070312 25.957031 14.046875 25.40625 C 14.03125 25.058594 14.160156 25 14.464844 25 C 17.429688 25.007812 20.402344 25.007812 23.367188 25.007812 C 23.53125 25.015625 23.695312 25.007812 23.863281 25 Z M 23.863281 25 "/>
<path style=" stroke:none;fill-rule:nonzero;fill:rgb(97.647059%,91.764706%,6.27451%);fill-opacity:1;" d="M 30.351562 40.847656 C 32.714844 40.847656 35.082031 40.855469 37.445312 40.839844 C 37.859375 40.839844 37.957031 40.953125 37.933594 41.34375 C 37.898438 41.835938 37.90625 42.332031 37.933594 42.828125 C 37.949219 43.125 37.875 43.230469 37.554688 43.230469 C 32.742188 43.222656 27.925781 43.222656 23.113281 43.230469 C 22.859375 43.230469 22.746094 43.183594 22.761719 42.894531 C 22.785156 42.332031 22.785156 41.761719 22.761719 41.203125 C 22.746094 40.898438 22.867188 40.847656 23.136719 40.847656 C 25.535156 40.855469 27.945312 40.847656 30.351562 40.847656 Z M 30.351562 40.847656 "/>
<path style=" stroke:none;fill-rule:nonzero;fill:rgb(1.568627%,49.411765%,50.588235%);fill-opacity:1;" d="M 136.203125 26.980469 C 134.996094 26.867188 133.789062 26.75 132.582031 26.625 C 130.082031 26.371094 127.578125 26.105469 125.082031 25.84375 C 122.3125 25.554688 119.535156 25.265625 116.769531 24.96875 C 116.226562 24.910156 115.675781 24.902344 115.152344 24.769531 C 116.84375 24.71875 118.542969 24.835938 120.234375 24.859375 C 123.035156 24.894531 125.835938 24.96875 128.644531 25.03125 C 130.394531 25.074219 132.144531 25.125 133.894531 25.171875 C 134.058594 25.183594 134.222656 25.171875 134.355469 25.296875 C 134.953125 25.875 135.628906 26.371094 136.203125 26.980469 Z M 136.203125 26.980469 "/>
<path style=" stroke:none;fill-rule:nonzero;fill:rgb(9.803922%,9.411765%,9.411765%);fill-opacity:1;" d="M 47.230469 12.898438 C 49.539062 12.199219 51.871094 11.5625 54.246094 11.101562 C 58.457031 10.277344 62.714844 9.855469 67.007812 10.035156 C 71.355469 10.21875 75.59375 10.960938 79.707031 12.386719 C 84.347656 14 88.578125 16.367188 92.4375 19.414062 C 94.351562 20.921875 96.167969 22.558594 97.820312 24.355469 C 94.632812 24.296875 91.453125 24.242188 88.265625 24.175781 C 85.976562 24.125 83.675781 24.074219 81.382812 24.019531 C 80.371094 23.992188 79.363281 23.960938 78.351562 23.933594 C 77.679688 22.9375 76.890625 22.019531 76.152344 21.0625 C 74.449219 18.875 72.734375 16.695312 71.035156 14.511719 C 70.871094 14.304688 70.707031 14.195312 70.425781 14.179688 C 67.601562 14.039062 64.765625 13.875 61.941406 13.726562 C 57.941406 13.511719 53.933594 13.296875 49.933594 13.082031 C 49.035156 13.015625 48.132812 12.957031 47.230469 12.898438 Z M 47.230469 12.898438 "/>
<path style=" stroke:none;fill-rule:nonzero;fill:rgb(85.490196%,86.666667%,20.784314%);fill-opacity:1;" d="M 63.230469 29.050781 C 63.230469 27.914062 63.230469 26.765625 63.230469 25.628906 C 63.230469 24.867188 63.425781 24.671875 64.167969 24.660156 C 65.03125 24.652344 65.890625 24.652344 66.753906 24.660156 C 67.386719 24.671875 67.617188 24.859375 67.625 25.488281 C 67.640625 27.863281 67.640625 30.242188 67.625 32.617188 C 67.617188 33.230469 67.394531 33.425781 66.789062 33.433594 C 65.867188 33.445312 64.957031 33.445312 64.035156 33.433594 C 63.460938 33.425781 63.238281 33.210938 63.230469 32.632812 C 63.222656 31.445312 63.230469 30.25 63.230469 29.050781 Z M 64.554688 29.050781 C 64.554688 29.679688 64.535156 30.316406 64.5625 30.941406 C 64.578125 31.386719 64.355469 32.015625 64.652344 32.238281 C 64.957031 32.460938 65.546875 32.296875 66.007812 32.3125 C 66.230469 32.320312 66.320312 32.246094 66.320312 32.007812 C 66.3125 30.042969 66.3125 28.078125 66.320312 26.121094 C 66.320312 25.859375 66.21875 25.792969 65.980469 25.800781 C 65.628906 25.816406 65.269531 25.816406 64.914062 25.800781 C 64.636719 25.785156 64.535156 25.875 64.542969 26.164062 C 64.5625 27.128906 64.554688 28.085938 64.554688 29.050781 Z M 64.554688 29.050781 "/>
<path style=" stroke:none;fill-rule:nonzero;fill:rgb(85.490196%,86.666667%,20.784314%);fill-opacity:1;" d="M 68.675781 29.0625 C 68.675781 27.722656 68.683594 26.394531 68.667969 25.058594 C 68.667969 24.769531 68.71875 24.644531 69.046875 24.652344 C 70.046875 24.679688 71.042969 24.660156 72.042969 24.660156 C 72.734375 24.671875 72.9375 24.882812 72.949219 25.585938 C 72.957031 26.578125 72.957031 27.566406 72.949219 28.558594 C 72.949219 29.234375 72.773438 29.433594 72.109375 29.449219 C 71.789062 29.457031 71.757812 29.546875 71.863281 29.828125 C 72.265625 30.910156 72.644531 32 73.046875 33.070312 C 73.160156 33.378906 73.105469 33.445312 72.792969 33.445312 C 71.804688 33.445312 71.804688 33.453125 71.476562 32.519531 C 71.15625 31.601562 70.828125 30.679688 70.507812 29.761719 C 70.476562 29.671875 70.441406 29.582031 70.417969 29.488281 C 70.203125 28.722656 70.328125 28.550781 71.089844 28.550781 C 71.648438 28.550781 71.648438 28.550781 71.648438 27.972656 C 71.648438 27.351562 71.640625 26.734375 71.65625 26.113281 C 71.667969 25.859375 71.585938 25.777344 71.328125 25.785156 C 71 25.800781 70.671875 25.808594 70.34375 25.785156 C 70.007812 25.757812 70.007812 25.949219 70.007812 26.1875 C 70.015625 28.417969 70.015625 30.644531 70.007812 32.875 C 70.007812 33.507812 70.089844 33.433594 69.433594 33.433594 C 68.683594 33.445312 68.683594 33.433594 68.683594 32.675781 C 68.675781 31.480469 68.675781 30.273438 68.675781 29.0625 Z M 68.675781 29.0625 "/>
<path style=" stroke:none;fill-rule:nonzero;fill:rgb(85.490196%,86.666667%,20.784314%);fill-opacity:1;" d="M 58.070312 29.050781 C 58.070312 27.707031 58.082031 26.355469 58.0625 25.007812 C 58.0625 24.746094 58.121094 24.652344 58.402344 24.652344 C 59.402344 24.671875 60.398438 24.652344 61.398438 24.660156 C 62.046875 24.671875 62.285156 24.867188 62.292969 25.511719 C 62.3125 26.808594 62.3125 28.09375 62.292969 29.390625 C 62.285156 30.027344 62.046875 30.25 61.40625 30.265625 C 60.832031 30.28125 60.257812 30.28125 59.683594 30.273438 C 59.445312 30.265625 59.378906 30.347656 59.386719 30.578125 C 59.394531 31.421875 59.378906 32.253906 59.394531 33.097656 C 59.402344 33.359375 59.328125 33.453125 59.058594 33.453125 C 58.082031 33.460938 58.082031 33.46875 58.082031 32.46875 C 58.070312 31.339844 58.070312 30.199219 58.070312 29.050781 Z M 59.386719 27.460938 C 59.386719 27.921875 59.394531 28.390625 59.386719 28.855469 C 59.378906 29.0625 59.445312 29.152344 59.65625 29.136719 C 59.996094 29.117188 60.339844 29.117188 60.675781 29.136719 C 60.921875 29.152344 60.972656 29.035156 60.964844 28.820312 C 60.957031 28.21875 60.972656 27.617188 60.957031 27.015625 C 60.945312 26.625 61.136719 26.113281 60.875 25.875 C 60.617188 25.644531 60.117188 25.824219 59.722656 25.800781 C 59.707031 25.800781 59.699219 25.800781 59.683594 25.800781 C 59.453125 25.769531 59.371094 25.867188 59.378906 26.097656 C 59.394531 26.558594 59.386719 27.015625 59.386719 27.460938 Z M 59.386719 27.460938 "/>
<path style=" stroke:none;fill-rule:nonzero;fill:rgb(86.666667%,87.058824%,20.392157%);fill-opacity:1;" d="M 78.433594 29.0625 C 78.433594 27.730469 78.441406 26.394531 78.425781 25.066406 C 78.417969 24.726562 78.53125 24.652344 78.84375 24.660156 C 79.789062 24.679688 80.734375 24.679688 81.679688 24.660156 C 81.949219 24.660156 82.066406 24.710938 82.066406 25.015625 C 82.058594 25.832031 82.074219 25.832031 81.25 25.84375 C 80.859375 25.84375 80.453125 25.851562 80.0625 25.84375 C 79.839844 25.832031 79.742188 25.890625 79.75 26.132812 C 79.765625 26.792969 79.765625 27.453125 79.75 28.113281 C 79.742188 28.351562 79.832031 28.417969 80.050781 28.410156 C 80.519531 28.390625 80.980469 28.417969 81.449219 28.402344 C 81.671875 28.390625 81.71875 28.476562 81.726562 28.691406 C 81.761719 29.5625 81.761719 29.5625 80.890625 29.5625 C 80.585938 29.5625 80.289062 29.574219 79.988281 29.5625 C 79.804688 29.554688 79.75 29.628906 79.75 29.804688 C 79.757812 30.5625 79.757812 31.3125 79.75 32.074219 C 79.75 32.304688 79.871094 32.304688 80.035156 32.304688 C 80.609375 32.304688 81.1875 32.3125 81.761719 32.296875 C 81.992188 32.289062 82.066406 32.363281 82.074219 32.59375 C 82.097656 33.46875 82.105469 33.46875 81.226562 33.46875 C 80.429688 33.46875 79.640625 33.453125 78.84375 33.476562 C 78.53125 33.484375 78.425781 33.410156 78.425781 33.070312 C 78.449219 31.726562 78.433594 30.390625 78.433594 29.0625 Z M 78.433594 29.0625 "/>
<path style=" stroke:none;fill-rule:nonzero;fill:rgb(85.490196%,86.666667%,20.784314%);fill-opacity:1;" d="M 76.332031 29.671875 C 76.332031 30.800781 76.324219 31.925781 76.339844 33.054688 C 76.339844 33.34375 76.289062 33.46875 75.960938 33.460938 C 75.007812 33.453125 75.007812 33.46875 75.007812 32.519531 C 75.007812 30.429688 75 28.34375 75.015625 26.253906 C 75.015625 25.90625 74.917969 25.777344 74.582031 25.832031 C 74.515625 25.84375 74.441406 25.832031 74.375 25.832031 C 73.5625 25.832031 73.425781 25.644531 73.578125 24.835938 C 73.613281 24.6875 73.679688 24.660156 73.800781 24.660156 C 75.050781 24.660156 76.289062 24.660156 77.539062 24.660156 C 77.710938 24.660156 77.800781 24.710938 77.777344 24.902344 C 77.777344 24.917969 77.777344 24.925781 77.777344 24.941406 C 77.828125 25.84375 77.828125 25.832031 76.921875 25.84375 C 76.25 25.851562 76.324219 25.734375 76.324219 26.460938 C 76.324219 27.535156 76.332031 28.597656 76.332031 29.671875 Z M 76.332031 29.671875 "/>
<path style=" stroke:none;fill-rule:nonzero;fill:rgb(1.568627%,49.411765%,50.588235%);fill-opacity:1;" d="M 48.945312 24 C 48.945312 24.363281 48.945312 24.726562 48.945312 25.089844 C 48.945312 26.164062 48.945312 27.238281 48.953125 28.308594 C 48.953125 28.484375 48.996094 28.648438 48.707031 28.671875 C 47.730469 28.738281 47.730469 28.746094 47.730469 27.773438 C 47.730469 25.503906 47.746094 23.234375 47.722656 20.972656 C 47.714844 20.535156 47.855469 20.476562 48.25 20.460938 C 48.726562 20.4375 48.90625 20.617188 49.0625 21.039062 C 49.554688 22.382812 50.097656 23.710938 50.671875 25.171875 C 50.6875 24.957031 50.695312 24.867188 50.695312 24.769531 C 50.695312 23.472656 50.703125 22.1875 50.6875 20.890625 C 50.6875 20.585938 50.730469 20.453125 51.082031 20.46875 C 51.921875 20.492188 51.921875 20.46875 51.921875 21.3125 C 51.921875 23.621094 51.910156 25.933594 51.929688 28.234375 C 51.929688 28.566406 51.855469 28.691406 51.5 28.671875 C 50.828125 28.648438 50.828125 28.671875 50.582031 28.039062 C 50.097656 26.78125 49.621094 25.535156 49.136719 24.28125 C 49.09375 24.183594 49.0625 24.09375 49.019531 23.992188 C 48.988281 23.992188 48.964844 24 48.945312 24 Z M 48.945312 24 "/>
<path style=" stroke:none;fill-rule:nonzero;fill:rgb(1.568627%,49.411765%,50.588235%);fill-opacity:1;" d="M 37.980469 24.539062 C 37.980469 23.300781 37.988281 22.0625 37.972656 20.824219 C 37.972656 20.542969 38.046875 20.445312 38.335938 20.453125 C 39.261719 20.46875 40.191406 20.453125 41.128906 20.460938 C 41.75 20.46875 41.957031 20.675781 41.964844 21.3125 C 41.972656 22.261719 41.972656 23.210938 41.964844 24.160156 C 41.957031 24.703125 41.777344 24.910156 41.226562 24.917969 C 40.863281 24.925781 40.863281 25.058594 40.972656 25.339844 C 41.339844 26.328125 41.683594 27.320312 42.054688 28.308594 C 42.160156 28.582031 42.121094 28.65625 41.816406 28.664062 C 40.890625 28.671875 40.890625 28.679688 40.578125 27.796875 C 40.28125 26.957031 39.984375 26.113281 39.691406 25.273438 C 39.65625 25.164062 39.617188 25.066406 39.582031 24.957031 C 39.386719 24.242188 39.492188 24.066406 40.207031 24.109375 C 40.640625 24.132812 40.765625 24 40.742188 23.570312 C 40.699219 22.996094 40.714844 22.417969 40.742188 21.839844 C 40.75 21.582031 40.660156 21.523438 40.414062 21.515625 C 39.222656 21.492188 39.222656 21.492188 39.222656 22.664062 C 39.222656 24.519531 39.214844 26.378906 39.230469 28.226562 C 39.230469 28.582031 39.121094 28.664062 38.785156 28.65625 C 37.972656 28.640625 37.972656 28.65625 37.972656 27.832031 C 37.980469 26.742188 37.980469 25.644531 37.980469 24.539062 Z M 37.980469 24.539062 "/>
<path style=" stroke:none;fill-rule:nonzero;fill:rgb(1.568627%,49.411765%,50.588235%);fill-opacity:1;" d="M 54.785156 28.648438 C 54.351562 28.648438 53.90625 28.65625 53.472656 28.648438 C 53.144531 28.640625 52.921875 28.464844 52.871094 28.136719 C 52.773438 27.46875 52.742188 26.773438 52.855469 26.121094 C 52.929688 25.71875 53.464844 26.023438 53.777344 25.949219 C 53.949219 25.90625 54.054688 25.980469 54.046875 26.1875 C 54.039062 26.578125 54.054688 26.957031 54.039062 27.34375 C 54.03125 27.550781 54.097656 27.625 54.320312 27.640625 C 55.535156 27.707031 55.519531 27.714844 55.542969 26.511719 C 55.550781 26.171875 55.460938 25.925781 55.207031 25.683594 C 54.53125 25.082031 53.890625 24.4375 53.226562 23.820312 C 52.945312 23.554688 52.808594 23.257812 52.816406 22.871094 C 52.824219 22.351562 52.808594 21.824219 52.824219 21.300781 C 52.839844 20.667969 53.054688 20.460938 53.667969 20.453125 C 54.433594 20.445312 55.207031 20.445312 55.96875 20.453125 C 56.527344 20.460938 56.742188 20.675781 56.757812 21.226562 C 56.765625 21.722656 56.757812 22.21875 56.765625 22.714844 C 56.773438 22.9375 56.726562 23.027344 56.480469 23.027344 C 55.535156 23.050781 55.535156 23.070312 55.535156 22.09375 C 55.527344 21.386719 55.632812 21.484375 54.933594 21.476562 C 54.046875 21.46875 54.070312 21.476562 54.039062 22.351562 C 54.023438 22.789062 54.152344 23.09375 54.484375 23.382812 C 55.132812 23.953125 55.738281 24.570312 56.371094 25.15625 C 56.644531 25.40625 56.773438 25.695312 56.765625 26.066406 C 56.75 26.667969 56.765625 27.277344 56.757812 27.878906 C 56.75 28.417969 56.535156 28.625 56.011719 28.648438 C 55.984375 28.648438 55.953125 28.648438 55.929688 28.648438 C 55.542969 28.648438 55.164062 28.648438 54.777344 28.648438 C 54.785156 28.65625 54.785156 28.648438 54.785156 28.648438 Z M 54.785156 28.648438 "/>
<path style=" stroke:none;fill-rule:nonzero;fill:rgb(1.568627%,49.411765%,50.588235%);fill-opacity:1;" d="M 44.808594 20.453125 C 44.945312 20.453125 45.0625 20.46875 45.167969 20.453125 C 45.429688 20.410156 45.53125 20.542969 45.570312 20.78125 C 46.046875 23.316406 46.523438 25.84375 47.015625 28.375 C 47.074219 28.648438 46.984375 28.664062 46.761719 28.671875 C 45.867188 28.699219 45.867188 28.699219 45.710938 27.832031 C 45.578125 27.121094 45.578125 27.121094 44.816406 27.121094 C 44.074219 27.121094 44.074219 27.121094 43.960938 27.832031 C 43.804688 28.746094 43.8125 28.738281 42.867188 28.671875 C 42.65625 28.65625 42.628906 28.589844 42.664062 28.402344 C 43.15625 25.859375 43.65625 23.316406 44.132812 20.765625 C 44.230469 20.246094 44.601562 20.535156 44.808594 20.453125 Z M 44.863281 22.707031 C 44.839844 22.707031 44.816406 22.714844 44.789062 22.714844 C 44.625 23.695312 44.460938 24.679688 44.304688 25.667969 C 44.289062 25.792969 44.167969 26.015625 44.40625 26.03125 C 44.734375 26.046875 45.078125 26.140625 45.390625 25.957031 C 45.414062 25.941406 45.375 25.832031 45.367188 25.769531 C 45.300781 25.339844 45.234375 24.902344 45.167969 24.472656 C 45.070312 23.878906 44.960938 23.292969 44.863281 22.707031 Z M 44.863281 22.707031 "/>
<path style=" stroke:none;fill-rule:nonzero;fill:rgb(1.568627%,49.411765%,50.588235%);fill-opacity:1;" d="M 34.820312 25.097656 C 34.820312 24.042969 34.800781 22.984375 34.828125 21.929688 C 34.835938 21.609375 34.726562 21.507812 34.433594 21.550781 C 34.351562 21.558594 34.269531 21.550781 34.1875 21.550781 C 33.414062 21.550781 33.324219 21.425781 33.445312 20.652344 C 33.472656 20.476562 33.5625 20.460938 33.695312 20.460938 C 34.84375 20.460938 35.992188 20.460938 37.136719 20.460938 C 37.316406 20.460938 37.355469 20.527344 37.375 20.699219 C 37.429688 21.542969 37.4375 21.542969 36.59375 21.550781 C 35.96875 21.558594 36.042969 21.460938 36.042969 22.085938 C 36.042969 24.132812 36.035156 26.179688 36.050781 28.226562 C 36.050781 28.558594 35.992188 28.679688 35.632812 28.671875 C 34.808594 28.648438 34.808594 28.671875 34.808594 27.863281 C 34.820312 26.941406 34.820312 26.015625 34.820312 25.097656 Z M 34.820312 25.097656 "/>
<path style=" stroke:none;fill-rule:nonzero;fill:rgb(0.392157%,48.627451%,50.980392%);fill-opacity:1;" d="M 135.539062 33.558594 C 134.503906 33.558594 133.460938 33.550781 132.425781 33.566406 C 132.152344 33.566406 132.046875 33.507812 132.046875 33.203125 C 132.0625 31.984375 132.0625 30.761719 132.046875 29.539062 C 132.046875 29.277344 132.097656 29.175781 132.382812 29.210938 C 133.738281 29.382812 135.09375 29.546875 136.449219 29.703125 C 136.605469 29.722656 136.695312 29.789062 136.769531 29.910156 C 137.46875 31.007812 138.164062 32.105469 138.878906 33.195312 C 139.070312 33.484375 138.9375 33.5 138.691406 33.5 C 137.640625 33.492188 136.589844 33.5 135.539062 33.5 C 135.539062 33.527344 135.539062 33.542969 135.539062 33.558594 Z M 135.539062 33.558594 "/>
<path style=" stroke:none;fill-rule:nonzero;fill:rgb(0.392157%,48.627451%,50.980392%);fill-opacity:1;" d="M 64.554688 29.050781 C 64.554688 28.09375 64.5625 27.128906 64.542969 26.171875 C 64.535156 25.882812 64.636719 25.792969 64.914062 25.808594 C 65.269531 25.832031 65.621094 25.824219 65.980469 25.808594 C 66.21875 25.800781 66.320312 25.875 66.320312 26.132812 C 66.3125 28.09375 66.3125 30.058594 66.320312 32.015625 C 66.320312 32.253906 66.230469 32.328125 66.007812 32.320312 C 65.546875 32.304688 64.957031 32.46875 64.652344 32.246094 C 64.355469 32.023438 64.570312 31.398438 64.5625 30.949219 C 64.535156 30.316406 64.554688 29.679688 64.554688 29.050781 Z M 64.554688 29.050781 "/>
<path style=" stroke:none;fill-rule:nonzero;fill:rgb(0.392157%,48.627451%,50.980392%);fill-opacity:1;" d="M 59.386719 27.460938 C 59.386719 27.003906 59.394531 26.550781 59.378906 26.105469 C 59.371094 25.875 59.453125 25.777344 59.683594 25.808594 C 59.699219 25.808594 59.707031 25.808594 59.722656 25.808594 C 60.117188 25.824219 60.617188 25.644531 60.875 25.882812 C 61.136719 26.121094 60.945312 26.632812 60.957031 27.023438 C 60.972656 27.625 60.957031 28.226562 60.964844 28.828125 C 60.964844 29.042969 60.921875 29.160156 60.675781 29.144531 C 60.339844 29.125 59.996094 29.125 59.65625 29.144531 C 59.4375 29.152344 59.378906 29.070312 59.386719 28.863281 C 59.394531 28.390625 59.386719 27.929688 59.386719 27.460938 Z M 59.386719 27.460938 "/>
<path style=" stroke:none;fill-rule:nonzero;fill:rgb(85.490196%,86.666667%,20.784314%);fill-opacity:1;" d="M 44.863281 22.707031 C 44.960938 23.292969 45.070312 23.878906 45.167969 24.464844 C 45.242188 24.894531 45.300781 25.332031 45.367188 25.757812 C 45.375 25.824219 45.40625 25.941406 45.390625 25.949219 C 45.078125 26.132812 44.734375 26.039062 44.40625 26.023438 C 44.167969 26.015625 44.28125 25.792969 44.304688 25.660156 C 44.460938 24.679688 44.625 23.695312 44.789062 22.707031 C 44.816406 22.714844 44.839844 22.707031 44.863281 22.707031 Z M 44.863281 22.707031 "/>
<path style=" stroke:none;fill-rule:nonzero;fill:rgb(9.411765%,9.019608%,9.019608%);fill-opacity:1;" d="M 74.5 69 C 49.792969 69 25.078125 69 0.371094 69.007812 C 0.0664062 69.007812 -0.0078125 68.941406 -0.0078125 68.628906 C 0 45.882812 0 23.125 -0.0078125 0.371094 C -0.0078125 0.0664062 0.0585938 -0.0078125 0.371094 -0.0078125 C 49.792969 0 99.207031 0 148.628906 -0.0078125 C 148.933594 -0.0078125 149.007812 0.0585938 149.007812 0.371094 C 149 23.125 149 45.875 149.007812 68.628906 C 149.007812 68.933594 148.941406 69.007812 148.628906 69.007812 C 123.921875 69 99.214844 69 74.5 69 Z M 25.175781 20.726562 C 24.757812 21.078125 24.28125 21.34375 23.8125 21.632812 C 23.574219 21.78125 23.574219 21.886719 23.730469 22.09375 C 23.976562 22.425781 24.191406 22.773438 24.417969 23.117188 C 24.230469 23.746094 24.042969 24.382812 23.863281 25.007812 C 23.695312 25.015625 23.53125 25.023438 23.367188 25.023438 C 20.402344 25.023438 17.429688 25.03125 14.464844 25.015625 C 14.152344 25.015625 14.03125 25.074219 14.046875 25.421875 C 14.078125 25.964844 14.070312 26.519531 14.046875 27.070312 C 14.039062 27.351562 14.136719 27.425781 14.398438 27.417969 C 14.949219 27.402344 15.492188 27.410156 16.042969 27.410156 C 18.390625 27.417969 20.75 27.417969 23.097656 27.425781 C 23.007812 27.757812 22.910156 28.085938 22.808594 28.417969 C 22.664062 28.921875 22.652344 28.921875 23.195312 28.921875 C 31.3125 28.921875 39.417969 28.921875 47.535156 28.921875 C 50.84375 28.921875 54.152344 28.914062 57.464844 28.914062 C 57.464844 29.886719 57.449219 30.859375 57.441406 31.84375 C 57.40625 35.96875 57.414062 40.097656 57.398438 44.222656 C 57.398438 44.511719 57.488281 44.601562 57.777344 44.59375 C 58.761719 44.5625 59.746094 44.5625 60.734375 44.535156 C 63.902344 44.46875 67.082031 44.527344 70.253906 44.453125 C 73.414062 44.378906 76.578125 44.445312 79.730469 44.371094 C 82.863281 44.296875 86 44.363281 89.128906 44.289062 C 92.332031 44.214844 95.535156 44.28125 98.730469 44.207031 C 101.851562 44.132812 104.972656 44.199219 108.085938 44.125 C 111.4375 44.050781 114.789062 44.125 118.140625 44.03125 C 119.578125 43.992188 121.015625 44 122.445312 43.984375 C 123.183594 44.015625 123.921875 44.023438 124.664062 43.976562 C 125.550781 44.015625 126.4375 43.96875 127.324219 43.949219 C 130.453125 43.894531 133.589844 43.941406 136.71875 43.867188 C 139.496094 43.808594 142.273438 43.835938 145.050781 43.828125 C 145.625 43.828125 145.625 43.828125 145.5 43.257812 C 145.492188 43.230469 145.484375 43.207031 145.476562 43.175781 C 144.753906 39.929688 144.023438 36.695312 143.300781 33.453125 C 143.25 33.238281 143.144531 33.082031 142.988281 32.941406 C 142.132812 32.1875 141.289062 31.429688 140.417969 30.695312 C 139.914062 30.273438 139.488281 29.769531 138.90625 29.457031 C 138.59375 28.960938 138.246094 28.484375 137.984375 27.964844 C 137.691406 27.367188 137.320312 26.988281 136.613281 27.0625 C 136.464844 27.078125 136.316406 27.023438 136.167969 26.996094 C 135.59375 26.386719 134.921875 25.890625 134.3125 25.3125 C 134.183594 25.191406 134.019531 25.191406 133.855469 25.191406 C 132.105469 25.140625 130.355469 25.089844 128.605469 25.050781 C 125.804688 24.984375 123.003906 24.910156 120.195312 24.875 C 118.5 24.851562 116.808594 24.734375 115.109375 24.785156 C 113.582031 24.636719 112.0625 24.496094 110.535156 24.339844 C 107.214844 23.992188 103.898438 23.636719 100.570312 23.300781 C 100.332031 23.273438 100.167969 23.199219 100.011719 23.019531 C 98.484375 21.300781 96.785156 19.765625 94.96875 18.363281 C 88.042969 12.984375 80.242188 9.65625 71.574219 8.378906 C 67.238281 7.734375 62.886719 7.699219 58.515625 8.164062 C 54.226562 8.617188 50.046875 9.542969 45.941406 10.828125 C 44.25 11.355469 42.589844 11.984375 40.921875 12.601562 C 39.582031 12.539062 38.242188 12.464844 36.90625 12.398438 C 34.121094 12.25 31.335938 12.109375 28.550781 11.953125 C 27.804688 11.910156 27.804688 11.894531 27.589844 12.59375 C 26.828125 15.292969 25.996094 18.007812 25.175781 20.726562 Z M 15.359375 34.820312 C 15.359375 34.839844 15.359375 34.847656 15.359375 34.863281 C 19.753906 34.863281 24.140625 34.863281 28.535156 34.871094 C 28.824219 34.871094 28.945312 34.832031 28.929688 34.5 C 28.894531 33.964844 28.894531 33.425781 28.929688 32.890625 C 28.953125 32.542969 28.824219 32.496094 28.519531 32.496094 C 25.535156 32.503906 22.554688 32.496094 19.574219 32.484375 C 17.800781 32.484375 16.015625 32.46875 14.242188 32.46875 C 10.234375 32.460938 6.226562 32.453125 2.21875 32.4375 C 1.988281 32.4375 1.90625 32.484375 1.914062 32.734375 C 1.929688 33.296875 1.9375 33.863281 1.914062 34.425781 C 1.898438 34.757812 2.003906 34.832031 2.324219 34.832031 C 6.652344 34.820312 11.007812 34.820312 15.359375 34.820312 Z M 113.3125 61.628906 C 113.3125 61.621094 113.3125 61.613281 113.3125 61.605469 C 109.410156 61.605469 105.507812 61.605469 101.605469 61.605469 C 94.542969 61.605469 87.476562 61.605469 80.414062 61.605469 C 80.316406 61.605469 80.226562 61.613281 80.125 61.605469 C 79.90625 61.578125 79.863281 61.6875 79.847656 61.894531 C 79.8125 62.257812 80.035156 62.214844 80.257812 62.214844 C 83.980469 62.214844 87.707031 62.222656 91.429688 62.230469 C 102.148438 62.242188 112.867188 62.242188 123.585938 62.242188 C 131.167969 62.242188 138.757812 62.242188 146.339844 62.257812 C 146.660156 62.257812 146.832031 62.199219 146.773438 61.835938 C 146.714844 61.480469 146.453125 61.644531 146.289062 61.644531 C 135.300781 61.621094 124.300781 61.628906 113.3125 61.628906 Z M 30.351562 40.847656 C 27.945312 40.847656 25.535156 40.847656 23.128906 40.839844 C 22.859375 40.839844 22.746094 40.886719 22.753906 41.195312 C 22.777344 41.753906 22.777344 42.324219 22.753906 42.886719 C 22.746094 43.175781 22.851562 43.222656 23.105469 43.222656 C 27.917969 43.214844 32.730469 43.214844 37.546875 43.222656 C 37.867188 43.222656 37.941406 43.117188 37.921875 42.820312 C 37.898438 42.324219 37.890625 41.828125 37.921875 41.332031 C 37.949219 40.945312 37.851562 40.820312 37.4375 40.832031 C 35.082031 40.863281 32.714844 40.847656 30.351562 40.847656 Z M 28.214844 53.0625 C 28.214844 53.070312 28.214844 53.078125 28.214844 53.085938 C 36.535156 53.085938 44.855469 53.085938 53.175781 53.085938 C 53.414062 53.085938 53.628906 53.121094 53.605469 52.75 C 53.578125 52.386719 53.347656 52.492188 53.167969 52.492188 C 48.304688 52.484375 43.453125 52.484375 38.589844 52.476562 C 29.242188 52.46875 19.894531 52.46875 10.546875 52.460938 C 10.421875 52.460938 10.300781 52.453125 10.175781 52.453125 C 7.851562 52.453125 5.519531 52.441406 3.195312 52.433594 C 2.988281 52.433594 2.914062 52.484375 2.898438 52.707031 C 2.867188 53.078125 3.082031 53.054688 3.328125 53.054688 C 11.621094 53.0625 19.917969 53.0625 28.214844 53.0625 Z M 79.183594 52.292969 C 79.183594 51.097656 79.191406 49.902344 79.183594 48.703125 C 79.183594 48.035156 78.953125 47.804688 78.292969 47.796875 C 77.390625 47.789062 76.488281 47.789062 75.585938 47.796875 C 74.953125 47.804688 74.722656 48.019531 74.714844 48.671875 C 74.707031 51.066406 74.707031 53.457031 74.714844 55.851562 C 74.714844 56.503906 74.945312 56.710938 75.59375 56.71875 C 76.472656 56.726562 77.34375 56.726562 78.222656 56.71875 C 78.960938 56.71875 79.171875 56.503906 79.171875 55.761719 C 79.191406 54.605469 79.183594 53.449219 79.183594 52.292969 Z M 64.90625 51.957031 C 64.90625 51.957031 64.914062 51.957031 64.90625 51.957031 C 64.914062 53.167969 64.914062 54.375 64.914062 55.589844 C 64.914062 55.753906 64.929688 55.917969 64.945312 56.082031 C 64.988281 56.472656 65.21875 56.695312 65.589844 56.703125 C 66.613281 56.71875 67.640625 56.71875 68.667969 56.703125 C 69.054688 56.695312 69.308594 56.480469 69.339844 56.066406 C 69.359375 55.886719 69.375 55.710938 69.375 55.53125 C 69.382812 53.261719 69.382812 50.992188 69.382812 48.722656 C 69.382812 47.78125 69.382812 47.796875 68.445312 47.773438 C 68.101562 47.761719 68.011719 47.863281 68.019531 48.210938 C 68.035156 50.535156 68.019531 52.855469 68.035156 55.183594 C 68.035156 55.464844 67.976562 55.578125 67.675781 55.554688 C 67.335938 55.53125 66.992188 55.53125 66.648438 55.554688 C 66.335938 55.578125 66.261719 55.472656 66.261719 55.167969 C 66.277344 53.039062 66.269531 50.90625 66.269531 48.769531 C 66.269531 47.761719 66.269531 47.773438 65.257812 47.773438 C 64.957031 47.773438 64.898438 47.878906 64.898438 48.152344 C 64.914062 49.429688 64.90625 50.695312 64.90625 51.957031 Z M 103.488281 54.730469 C 103.488281 53.640625 103.496094 52.558594 103.488281 51.46875 C 103.480469 50.84375 103.265625 50.621094 102.640625 50.609375 C 101.875 50.601562 101.113281 50.601562 100.339844 50.609375 C 99.75 50.621094 99.535156 50.816406 99.527344 51.394531 C 99.511719 52.433594 99.511719 53.484375 99.527344 54.53125 C 99.535156 55.09375 99.742188 55.28125 100.308594 55.300781 C 100.800781 55.308594 101.292969 55.339844 101.785156 55.300781 C 102.207031 55.265625 102.304688 55.421875 102.261719 55.800781 C 102.230469 56.132812 102.253906 56.460938 102.253906 56.792969 C 102.253906 57.765625 102.253906 57.742188 101.285156 57.785156 C 100.851562 57.800781 100.742188 57.667969 100.761719 57.246094 C 100.792969 56.28125 100.769531 56.289062 99.824219 56.324219 C 99.609375 56.332031 99.542969 56.398438 99.542969 56.601562 C 99.5625 57.058594 99.542969 57.511719 99.550781 57.964844 C 99.570312 58.625 99.757812 58.824219 100.414062 58.832031 C 101.136719 58.839844 101.859375 58.839844 102.589844 58.832031 C 103.289062 58.824219 103.488281 58.625 103.488281 57.90625 C 103.496094 56.84375 103.488281 55.785156 103.488281 54.730469 Z M 145.230469 54.722656 C 145.230469 53.632812 145.238281 52.550781 145.230469 51.460938 C 145.222656 50.84375 145.007812 50.621094 144.382812 50.609375 C 143.621094 50.601562 142.847656 50.601562 142.082031 50.609375 C 141.5 50.621094 141.277344 50.832031 141.277344 51.410156 C 141.269531 52.441406 141.269531 53.476562 141.277344 54.507812 C 141.289062 55.09375 141.492188 55.289062 142.082031 55.300781 C 142.601562 55.308594 143.128906 55.316406 143.644531 55.300781 C 143.921875 55.289062 144.039062 55.355469 144.023438 55.664062 C 143.996094 56.035156 144.015625 56.40625 144.015625 56.777344 C 144.015625 57.765625 144.015625 57.765625 143.046875 57.765625 C 142.511719 57.765625 142.511719 57.765625 142.511719 57.214844 C 142.511719 56.273438 142.511719 56.273438 141.574219 56.3125 C 141.359375 56.324219 141.289062 56.378906 141.296875 56.59375 C 141.3125 57.046875 141.296875 57.503906 141.3125 57.957031 C 141.335938 58.625 141.523438 58.816406 142.183594 58.824219 C 142.90625 58.832031 143.636719 58.832031 144.359375 58.824219 C 145.050781 58.816406 145.238281 58.617188 145.238281 57.933594 C 145.238281 56.867188 145.230469 55.792969 145.230469 54.722656 Z M 111.316406 50.609375 C 110.945312 50.609375 110.574219 50.601562 110.207031 50.609375 C 109.53125 50.621094 109.335938 50.824219 109.328125 51.511719 C 109.328125 51.800781 109.328125 52.089844 109.328125 52.378906 C 109.328125 54.234375 109.328125 56.089844 109.328125 57.941406 C 109.328125 58.550781 109.492188 58.78125 110.015625 58.808594 C 110.878906 58.839844 111.742188 58.832031 112.605469 58.808594 C 113.074219 58.789062 113.269531 58.566406 113.269531 58.097656 C 113.285156 57.023438 113.285156 55.949219 113.269531 54.878906 C 113.261719 54.367188 113.039062 54.160156 112.53125 54.144531 C 111.980469 54.128906 111.4375 54.117188 110.886719 54.144531 C 110.59375 54.160156 110.519531 54.054688 110.535156 53.773438 C 110.558594 53.402344 110.542969 53.03125 110.542969 52.65625 C 110.542969 51.667969 110.542969 51.691406 111.542969 51.660156 C 111.964844 51.644531 112.070312 51.757812 112.054688 52.171875 C 112.019531 53.136719 112.046875 53.136719 112.992188 53.09375 C 113.203125 53.085938 113.277344 53.039062 113.269531 52.816406 C 113.253906 52.335938 113.269531 51.847656 113.261719 51.371094 C 113.246094 50.84375 113.03125 50.628906 112.503906 50.601562 C 112.113281 50.601562 111.707031 50.609375 111.316406 50.609375 Z M 54.449219 52.238281 C 54.449219 53.410156 54.449219 54.574219 54.449219 55.746094 C 54.449219 56.734375 54.449219 56.71875 55.425781 56.726562 C 55.730469 56.726562 55.78125 56.621094 55.78125 56.347656 C 55.765625 55.503906 55.789062 54.671875 55.773438 53.828125 C 55.765625 53.550781 55.855469 53.484375 56.117188 53.492188 C 56.675781 53.507812 57.242188 53.5 57.800781 53.492188 C 58.5 53.476562 58.730469 53.242188 58.738281 52.542969 C 58.746094 51.28125 58.746094 50.015625 58.738281 48.746094 C 58.738281 48.035156 58.507812 47.804688 57.808594 47.796875 C 56.808594 47.789062 55.8125 47.804688 54.8125 47.789062 C 54.515625 47.78125 54.449219 47.878906 54.449219 48.160156 C 54.457031 49.523438 54.449219 50.875 54.449219 52.238281 Z M 63.511719 56.71875 C 63.566406 56.71875 63.617188 56.71875 63.675781 56.71875 C 64.175781 56.71875 64.175781 56.71875 64.078125 56.207031 C 63.609375 53.753906 63.140625 51.304688 62.671875 48.851562 C 62.457031 47.730469 62.464844 47.738281 61.339844 47.78125 C 61.113281 47.789062 61.046875 47.871094 61.003906 48.085938 C 60.699219 49.753906 60.371094 51.417969 60.042969 53.09375 C 59.828125 54.183594 59.625 55.28125 59.402344 56.371094 C 59.34375 56.644531 59.402344 56.726562 59.691406 56.726562 C 60.636719 56.726562 60.636719 56.742188 60.808594 55.8125 C 60.816406 55.785156 60.824219 55.761719 60.824219 55.726562 C 60.957031 55.035156 60.957031 55.035156 61.644531 55.035156 C 62.621094 55.035156 62.621094 55.035156 62.746094 56.023438 C 62.835938 56.71875 62.835938 56.71875 63.511719 56.71875 Z M 90.609375 54.515625 C 90.589844 51.890625 88.496094 49.867188 85.910156 49.96875 C 82.753906 50.089844 80.691406 53.550781 82.074219 56.40625 C 82.1875 56.644531 82.222656 56.851562 82.140625 57.105469 C 81.964844 57.660156 81.835938 58.222656 81.671875 58.773438 C 81.597656 59.019531 81.671875 59.0625 81.902344 59.003906 C 82.441406 58.855469 82.984375 58.722656 83.527344 58.566406 C 83.816406 58.484375 84.0625 58.492188 84.347656 58.625 C 87.257812 59.914062 90.625 57.710938 90.609375 54.515625 Z M 122.765625 56.199219 C 122.765625 55.597656 122.78125 54.984375 122.765625 54.382812 C 122.75 53.773438 122.535156 53.574219 121.925781 53.566406 C 121.394531 53.558594 120.859375 53.558594 120.324219 53.566406 C 120.144531 53.566406 120.046875 53.542969 120.054688 53.316406 C 120.078125 52.878906 120.09375 52.433594 120.09375 51.996094 C 120.09375 51.742188 120.203125 51.675781 120.441406 51.683594 C 120.949219 51.699219 121.449219 51.691406 121.960938 51.691406 C 122.730469 51.691406 122.714844 51.691406 122.707031 50.898438 C 122.707031 50.667969 122.640625 50.59375 122.402344 50.601562 C 121.359375 50.609375 120.324219 50.621094 119.28125 50.601562 C 119.027344 50.601562 118.953125 50.675781 118.945312 50.925781 C 118.914062 52.054688 118.878906 53.179688 118.832031 54.308594 C 118.820312 54.566406 118.886719 54.640625 119.140625 54.640625 C 119.824219 54.621094 120.515625 54.648438 121.195312 54.628906 C 121.457031 54.621094 121.558594 54.6875 121.550781 54.96875 C 121.523438 55.523438 121.550781 56.066406 121.539062 56.621094 C 121.539062 56.992188 121.664062 57.484375 121.476562 57.691406 C 121.238281 57.949219 120.726562 57.742188 120.332031 57.785156 C 120.121094 57.808594 120.039062 57.734375 120.046875 57.511719 C 120.0625 57.15625 120.054688 56.792969 120.046875 56.4375 C 120.046875 56.347656 120.078125 56.214844 119.949219 56.207031 C 119.601562 56.191406 119.265625 56.183594 118.921875 56.207031 C 118.773438 56.214844 118.832031 56.378906 118.832031 56.480469 C 118.820312 56.972656 118.820312 57.46875 118.832031 57.964844 C 118.839844 58.625 119.027344 58.832031 119.683594 58.839844 C 120.40625 58.847656 121.136719 58.847656 121.859375 58.839844 C 122.535156 58.832031 122.730469 58.632812 122.738281 57.941406 C 122.773438 57.355469 122.765625 56.777344 122.765625 56.199219 Z M 133.730469 58.839844 C 134.140625 58.839844 134.550781 58.839844 134.960938 58.839844 C 135.71875 58.839844 135.703125 58.839844 135.710938 58.070312 C 135.710938 57.785156 135.613281 57.726562 135.355469 57.734375 C 134.78125 57.75 134.207031 57.71875 133.632812 57.734375 C 133.238281 57.75 133.269531 57.625 133.433594 57.355469 C 134.082031 56.238281 134.714844 55.117188 135.347656 53.996094 C 135.519531 53.699219 135.695312 53.390625 135.703125 53.039062 C 135.71875 52.460938 135.710938 51.882812 135.703125 51.304688 C 135.695312 50.898438 135.480469 50.644531 135.078125 50.628906 C 134.207031 50.601562 133.328125 50.601562 132.457031 50.628906 C 132.054688 50.636719 131.847656 50.90625 131.832031 51.304688 C 131.824219 51.652344 131.824219 51.988281 131.824219 52.335938 C 131.824219 53.1875 131.824219 53.179688 132.679688 53.1875 C 132.964844 53.1875 133.046875 53.105469 133.039062 52.816406 C 133.03125 52.453125 132.875 51.957031 133.097656 51.742188 C 133.335938 51.511719 133.828125 51.691406 134.207031 51.667969 C 134.246094 51.667969 134.289062 51.667969 134.328125 51.667969 C 134.429688 51.667969 134.503906 51.707031 134.496094 51.808594 C 134.445312 52.394531 134.632812 52.996094 134.289062 53.574219 C 133.484375 54.925781 132.726562 56.3125 131.941406 57.675781 C 131.765625 57.964844 131.742188 58.261719 131.742188 58.574219 C 131.742188 58.789062 131.832031 58.824219 132.011719 58.824219 C 132.582031 58.832031 133.15625 58.839844 133.730469 58.839844 Z M 137.925781 57.742188 C 138.558594 56.628906 139.078125 55.5625 139.734375 54.589844 C 140.417969 53.582031 140.480469 52.5 140.410156 51.363281 C 140.375 50.84375 140.179688 50.636719 139.667969 50.621094 C 138.871094 50.59375 138.082031 50.601562 137.285156 50.621094 C 136.761719 50.628906 136.554688 50.851562 136.523438 51.386719 C 136.507812 51.699219 136.515625 52.023438 136.515625 52.335938 C 136.507812 53.195312 136.507812 53.179688 137.359375 53.195312 C 137.65625 53.203125 137.761719 53.136719 137.753906 52.816406 C 137.746094 52.441406 137.558594 51.921875 137.84375 51.726562 C 138.101562 51.542969 138.585938 51.683594 138.972656 51.683594 C 139.011719 51.683594 139.054688 51.683594 139.09375 51.683594 C 139.175781 51.691406 139.226562 51.734375 139.21875 51.816406 C 139.160156 52.394531 139.355469 52.980469 139.027344 53.542969 C 138.207031 54.9375 137.425781 56.355469 136.621094 57.757812 C 136.574219 57.839844 136.523438 57.921875 136.480469 58.015625 C 136.261719 58.574219 136.433594 58.839844 137.015625 58.839844 C 137.9375 58.839844 138.847656 58.839844 139.769531 58.839844 C 140.425781 58.839844 140.410156 58.839844 140.433594 58.195312 C 140.449219 57.847656 140.367188 57.710938 139.988281 57.734375 C 139.324219 57.765625 138.675781 57.742188 137.925781 57.742188 Z M 129.925781 50.601562 C 129.648438 50.601562 129.359375 50.621094 129.074219 50.59375 C 128.820312 50.578125 128.695312 50.660156 128.613281 50.917969 C 128.03125 52.683594 127.421875 54.449219 126.804688 56.214844 C 126.714844 56.472656 126.707031 56.71875 126.691406 56.984375 C 126.675781 57.214844 126.75 57.296875 126.988281 57.289062 C 127.5625 57.273438 128.136719 57.28125 128.710938 57.28125 C 129.367188 57.28125 129.367188 57.28125 129.367188 57.957031 C 129.367188 58.882812 129.367188 58.882812 130.28125 58.832031 C 130.296875 58.832031 130.304688 58.832031 130.320312 58.832031 C 130.503906 58.855469 130.558594 58.757812 130.550781 58.59375 C 130.542969 58.277344 130.558594 57.957031 130.542969 57.644531 C 130.535156 57.402344 130.566406 57.230469 130.871094 57.289062 C 131.152344 57.335938 131.199219 57.1875 131.175781 56.957031 C 131.160156 56.835938 131.160156 56.710938 131.175781 56.585938 C 131.207031 56.304688 131.117188 56.175781 130.824219 56.222656 C 130.609375 56.257812 130.542969 56.164062 130.550781 55.949219 C 130.566406 55.316406 130.558594 54.6875 130.550781 54.054688 C 130.550781 53.929688 130.601562 53.730469 130.378906 53.765625 C 130.042969 53.8125 129.679688 53.605469 129.378906 53.878906 C 129.335938 53.921875 129.367188 54.035156 129.367188 54.117188 C 129.367188 54.515625 129.367188 54.917969 129.367188 55.316406 C 129.367188 56.238281 129.367188 56.222656 128.457031 56.230469 C 128.128906 56.230469 128.105469 56.148438 128.203125 55.859375 C 128.753906 54.285156 129.277344 52.699219 129.8125 51.105469 C 129.871094 50.957031 129.960938 50.808594 129.925781 50.601562 Z M 107.453125 50.601562 C 107.148438 50.601562 106.886719 50.628906 106.632812 50.59375 C 106.304688 50.554688 106.15625 50.675781 106.050781 51 C 105.472656 52.742188 104.875 54.480469 104.273438 56.222656 C 104.191406 56.460938 104.167969 56.703125 104.152344 56.949219 C 104.136719 57.207031 104.191406 57.3125 104.480469 57.296875 C 105.015625 57.273438 105.546875 57.289062 106.082031 57.289062 C 106.855469 57.289062 106.855469 57.289062 106.855469 58.054688 C 106.855469 58.847656 106.855469 58.832031 107.652344 58.839844 C 107.929688 58.839844 108.054688 58.78125 108.019531 58.476562 C 107.996094 58.1875 108.027344 57.898438 108.011719 57.609375 C 108.003906 57.378906 108.039062 57.230469 108.316406 57.28125 C 108.578125 57.328125 108.695312 57.222656 108.660156 56.941406 C 108.644531 56.816406 108.644531 56.695312 108.660156 56.570312 C 108.703125 56.28125 108.585938 56.15625 108.300781 56.207031 C 108.054688 56.25 108.003906 56.125 108.011719 55.902344 C 108.027344 55.464844 108.019531 55.019531 108.019531 54.582031 C 108.019531 53.714844 108.019531 53.722656 107.167969 53.722656 C 106.902344 53.722656 106.847656 53.804688 106.855469 54.054688 C 106.871094 54.6875 106.855469 55.316406 106.863281 55.949219 C 106.863281 56.109375 106.847656 56.214844 106.648438 56.207031 C 106.304688 56.199219 105.949219 56.207031 105.574219 56.207031 C 106.199219 54.316406 106.8125 52.476562 107.453125 50.601562 Z M 71.46875 61.746094 C 71.46875 62.753906 71.460938 63.75 71.46875 64.757812 C 71.476562 65.65625 71.304688 65.515625 72.242188 65.542969 C 72.527344 65.550781 72.628906 65.460938 72.617188 65.171875 C 72.601562 64.492188 72.617188 63.824219 72.609375 63.148438 C 72.601562 62.882812 72.691406 62.785156 72.964844 62.792969 C 73.441406 62.800781 73.917969 62.769531 74.394531 62.753906 C 74.910156 62.734375 75.132812 62.546875 75.140625 62.035156 C 75.15625 60.910156 75.15625 59.78125 75.140625 58.660156 C 75.132812 58.136719 74.910156 57.949219 74.394531 57.941406 C 73.546875 57.933594 72.699219 57.949219 71.847656 57.933594 C 71.535156 57.921875 71.445312 58.023438 71.453125 58.328125 C 71.476562 59.457031 71.46875 60.597656 71.46875 61.746094 Z M 70.417969 52.253906 C 70.417969 53.617188 70.425781 54.976562 70.410156 56.339844 C 70.410156 56.652344 70.5 56.734375 70.804688 56.726562 C 71.558594 56.703125 72.308594 56.71875 73.0625 56.71875 C 73.957031 56.71875 73.941406 56.71875 73.933594 55.835938 C 73.933594 55.5625 73.828125 55.523438 73.597656 55.523438 C 73.121094 55.53125 72.636719 55.503906 72.160156 55.53125 C 71.839844 55.546875 71.773438 55.429688 71.773438 55.132812 C 71.78125 53.003906 71.78125 50.867188 71.78125 48.738281 C 71.78125 47.78125 71.78125 47.796875 70.8125 47.78125 C 70.457031 47.773438 70.410156 47.902344 70.417969 48.210938 C 70.425781 49.554688 70.417969 50.90625 70.417969 52.253906 Z M 116.121094 50.601562 C 115.527344 50.601562 114.945312 50.609375 114.355469 50.59375 C 114.148438 50.59375 114.058594 50.636719 114.066406 50.867188 C 114.082031 51.460938 114.074219 52.046875 114.074219 52.640625 C 114.074219 52.75 114.058594 52.878906 114.214844 52.878906 C 114.542969 52.871094 114.914062 52.996094 115.175781 52.824219 C 115.355469 52.707031 115.214844 52.359375 115.242188 52.121094 C 115.25 52.054688 115.25 51.980469 115.242188 51.914062 C 115.222656 51.742188 115.289062 51.667969 115.472656 51.675781 C 115.78125 51.683594 116.101562 51.699219 116.414062 51.675781 C 116.761719 51.644531 116.785156 51.757812 116.710938 52.054688 C 116.203125 54.011719 115.699219 55.976562 115.199219 57.941406 C 114.960938 58.863281 114.960938 58.855469 115.914062 58.847656 C 116.160156 58.847656 116.257812 58.773438 116.324219 58.519531 C 116.800781 56.578125 117.300781 54.640625 117.789062 52.699219 C 117.933594 52.105469 118.15625 51.519531 118.125 50.882812 C 118.109375 50.675781 118.066406 50.59375 117.84375 50.601562 C 117.269531 50.609375 116.695312 50.601562 116.121094 50.601562 Z M 75.914062 61.71875 C 75.914062 62.851562 75.929688 63.972656 75.90625 65.105469 C 75.894531 65.460938 76.011719 65.550781 76.347656 65.542969 C 77.03125 65.515625 77.710938 65.542969 78.402344 65.535156 C 79.171875 65.523438 79.074219 65.671875 79.101562 64.832031 C 79.109375 64.558594 79.019531 64.46875 78.746094 64.476562 C 78.292969 64.492188 77.84375 64.46875 77.390625 64.484375 C 77.144531 64.492188 77.046875 64.410156 77.054688 64.15625 C 77.070312 63.59375 77.070312 63.023438 77.054688 62.464844 C 77.046875 62.199219 77.160156 62.132812 77.398438 62.140625 C 77.726562 62.15625 78.054688 62.140625 78.386719 62.148438 C 78.597656 62.148438 78.828125 62.167969 78.769531 61.84375 C 78.730469 61.5625 78.976562 61.125 78.410156 61.117188 C 78.082031 61.109375 77.753906 61.101562 77.425781 61.117188 C 77.167969 61.125 77.046875 61.058594 77.054688 60.78125 C 77.070312 60.269531 77.070312 59.765625 77.054688 59.253906 C 77.046875 59.019531 77.136719 58.9375 77.367188 58.9375 C 77.820312 58.945312 78.269531 58.9375 78.722656 58.945312 C 78.945312 58.957031 79.058594 58.882812 79.042969 58.640625 C 79.035156 58.519531 79.027344 58.394531 79.042969 58.269531 C 79.074219 57.988281 78.96875 57.882812 78.671875 57.882812 C 77.890625 57.898438 77.113281 57.898438 76.332031 57.882812 C 76.011719 57.875 75.90625 57.972656 75.90625 58.304688 C 75.921875 59.441406 75.914062 60.582031 75.914062 61.71875 Z M 58.226562 61.671875 C 58.226562 62.828125 58.238281 63.980469 58.21875 65.136719 C 58.210938 65.449219 58.308594 65.542969 58.613281 65.535156 C 59.3125 65.515625 60.011719 65.535156 60.707031 65.523438 C 61.433594 65.515625 61.332031 65.632812 61.359375 64.855469 C 61.367188 64.535156 61.25 64.453125 60.957031 64.46875 C 60.527344 64.492188 60.109375 64.46875 59.683594 64.476562 C 59.460938 64.484375 59.363281 64.402344 59.363281 64.171875 C 59.371094 63.59375 59.371094 63.015625 59.363281 62.4375 C 59.355469 62.191406 59.46875 62.132812 59.691406 62.140625 C 60.019531 62.148438 60.347656 62.132812 60.675781 62.148438 C 60.929688 62.15625 61.070312 62.089844 61.039062 61.804688 C 61.019531 61.695312 61.027344 61.578125 61.039062 61.472656 C 61.0625 61.21875 60.945312 61.132812 60.699219 61.144531 C 60.355469 61.160156 60.019531 61.132812 59.675781 61.152344 C 59.445312 61.160156 59.363281 61.066406 59.363281 60.835938 C 59.371094 60.316406 59.378906 59.789062 59.363281 59.269531 C 59.355469 59.019531 59.4375 58.921875 59.691406 58.929688 C 60.101562 58.945312 60.511719 58.921875 60.921875 58.9375 C 61.226562 58.957031 61.390625 58.882812 61.339844 58.535156 C 61.300781 58.253906 61.480469 57.867188 60.929688 57.882812 C 60.175781 57.898438 59.425781 57.90625 58.671875 57.882812 C 58.320312 57.875 58.195312 57.964844 58.203125 58.335938 C 58.246094 59.441406 58.226562 60.554688 58.226562 61.671875 Z M 54.464844 61.730469 C 54.464844 62.761719 54.457031 63.792969 54.464844 64.824219 C 54.472656 65.632812 54.335938 65.507812 55.1875 65.542969 C 55.542969 65.558594 55.625 65.425781 55.617188 65.097656 C 55.601562 64.230469 55.617188 63.363281 55.609375 62.496094 C 55.609375 62.25 55.683594 62.148438 55.9375 62.15625 C 56.304688 62.175781 56.675781 62.15625 57.046875 62.167969 C 57.234375 62.167969 57.332031 62.109375 57.316406 61.902344 C 57.308594 61.761719 57.308594 61.628906 57.316406 61.488281 C 57.339844 61.234375 57.226562 61.152344 56.980469 61.167969 C 56.625 61.183594 56.265625 61.160156 55.910156 61.175781 C 55.671875 61.183594 55.601562 61.09375 55.609375 60.863281 C 55.617188 60.324219 55.625 59.789062 55.609375 59.253906 C 55.601562 58.988281 55.714844 58.929688 55.953125 58.929688 C 56.378906 58.9375 56.800781 58.914062 57.226562 58.9375 C 57.667969 58.972656 57.570312 58.667969 57.578125 58.425781 C 57.578125 58.171875 57.652344 57.90625 57.21875 57.921875 C 56.429688 57.957031 55.632812 57.941406 54.835938 57.921875 C 54.539062 57.914062 54.457031 58.023438 54.464844 58.304688 C 54.472656 59.441406 54.464844 60.582031 54.464844 61.730469 Z M 62.105469 61.730469 C 62.105469 62.816406 62.105469 63.898438 62.105469 64.988281 C 62.105469 65.535156 62.105469 65.535156 62.632812 65.535156 C 63.230469 65.535156 63.839844 65.542969 64.4375 65.535156 C 65.203125 65.523438 65.113281 65.671875 65.128906 64.824219 C 65.136719 64.550781 65.046875 64.460938 64.773438 64.46875 C 64.390625 64.484375 64.011719 64.460938 63.625 64.476562 C 63.34375 64.492188 63.238281 64.402344 63.246094 64.105469 C 63.261719 63.421875 63.253906 62.734375 63.253906 62.042969 C 63.253906 60.789062 63.246094 59.542969 63.261719 58.285156 C 63.261719 57.972656 63.15625 57.859375 62.859375 57.875 C 62.761719 57.882812 62.671875 57.882812 62.574219 57.875 C 62.226562 57.839844 62.089844 57.964844 62.097656 58.335938 C 62.121094 59.476562 62.105469 60.597656 62.105469 61.730469 Z M 96.332031 54.738281 C 96.332031 53.597656 96.332031 52.460938 96.332031 51.3125 C 96.332031 50.585938 96.332031 50.585938 95.585938 50.59375 C 95.421875 50.59375 95.265625 50.570312 95.207031 50.800781 C 95.035156 51.460938 94.847656 52.121094 94.664062 52.78125 C 94.632812 52.914062 94.609375 53.054688 94.796875 53.03125 C 95.148438 52.988281 95.117188 53.203125 95.117188 53.433594 C 95.117188 54.945312 95.117188 56.453125 95.117188 57.972656 C 95.117188 58.855469 95.117188 58.839844 96.003906 58.839844 C 96.285156 58.839844 96.347656 58.75 96.339844 58.484375 C 96.324219 57.238281 96.332031 55.992188 96.332031 54.738281 Z M 65.777344 61.746094 C 65.777344 62.867188 65.785156 64 65.769531 65.121094 C 65.761719 65.449219 65.867188 65.550781 66.1875 65.535156 C 66.8125 65.507812 67.445312 65.535156 68.078125 65.523438 C 68.824219 65.515625 68.726562 65.640625 68.75 64.847656 C 68.757812 64.566406 68.675781 64.453125 68.378906 64.46875 C 68.050781 64.492188 67.722656 64.453125 67.394531 64.476562 C 67.023438 64.511719 66.902344 64.394531 66.910156 64 C 66.933594 62.222656 66.925781 60.457031 66.917969 58.683594 C 66.917969 57.808594 67.058594 57.941406 66.164062 57.914062 C 65.851562 57.90625 65.769531 58.015625 65.769531 58.320312 C 65.785156 59.46875 65.777344 60.605469 65.777344 61.746094 Z M 93.800781 54.738281 C 93.800781 53.597656 93.800781 52.460938 93.800781 51.3125 C 93.800781 50.585938 93.800781 50.585938 93.0625 50.601562 C 92.933594 50.601562 92.769531 50.535156 92.710938 50.769531 C 92.539062 51.445312 92.339844 52.113281 92.152344 52.789062 C 92.117188 52.921875 92.117188 53.054688 92.308594 53.039062 C 92.621094 53.003906 92.585938 53.210938 92.585938 53.402344 C 92.585938 54.925781 92.585938 56.453125 92.585938 57.972656 C 92.585938 58.839844 92.585938 58.824219 93.441406 58.839844 C 93.761719 58.847656 93.820312 58.734375 93.820312 58.445312 C 93.792969 57.214844 93.800781 55.976562 93.800781 54.738281 Z M 70.558594 61.738281 C 70.558594 60.6875 70.566406 59.648438 70.558594 58.601562 C 70.550781 57.832031 70.664062 57.949219 69.882812 57.914062 C 69.496094 57.898438 69.40625 58.023438 69.40625 58.402344 C 69.421875 60.515625 69.414062 62.636719 69.414062 64.75 C 69.414062 65.542969 69.414062 65.535156 70.195312 65.535156 C 70.484375 65.535156 70.574219 65.441406 70.566406 65.152344 C 70.550781 64.023438 70.558594 62.875 70.558594 61.738281 Z M 124.816406 56.214844 C 125 56.214844 125.171875 56.214844 125.351562 56.214844 C 126.132812 56.214844 126.117188 56.214844 126.117188 55.4375 C 126.117188 55.152344 126.007812 55.09375 125.753906 55.109375 C 125.292969 55.125 124.828125 55.117188 124.359375 55.117188 C 123.59375 55.117188 123.601562 55.117188 123.601562 55.902344 C 123.601562 56.140625 123.644531 56.25 123.914062 56.230469 C 124.210938 56.199219 124.515625 56.214844 124.816406 56.214844 Z M 124.816406 56.214844 "/>
<path style=" stroke:none;fill-rule:nonzero;fill:rgb(9.411765%,9.019608%,9.019608%);fill-opacity:1;" d="M 1.898438 46.558594 L 147.636719 46.558594 L 147.636719 66.367188 L 1.898438 66.367188 Z M 1.898438 46.558594 "/>
</g>
</svg>
